<svg width="16" height="16" viewBox="0 0 16 16" fill="none" xmlns="http://www.w3.org/2000/svg">
<path d="M14.9249 12.0483L12.5671 9.69026C12.0975 9.22252 11.3198 9.23673 10.8338 9.72289L9.64595 10.9105C9.57091 10.8691 9.49323 10.8259 9.41156 10.7801C8.66144 10.3645 7.63477 9.79478 6.55442 8.71363C5.47086 7.63021 4.90066 6.60197 4.48376 5.85136C4.43977 5.77184 4.39762 5.69517 4.35599 5.62236L5.15322 4.82632L5.54516 4.43389C6.0319 3.94703 6.04532 3.16954 5.57679 2.70044L3.21901 0.342138C2.75048 -0.126303 1.97242 -0.112092 1.48569 0.374771L0.821191 1.04309L0.839349 1.06112C0.616533 1.34543 0.430341 1.67333 0.291782 2.02695C0.164057 2.36354 0.0845364 2.68474 0.0481752 3.00659C-0.263154 5.58758 0.916283 7.94641 4.11712 11.1473C8.54165 15.5715 12.1072 15.2373 12.2611 15.221C12.5961 15.1809 12.9171 15.1009 13.2434 14.9742C13.594 14.8372 13.9217 14.6513 14.2058 14.429L14.2203 14.4419L14.8935 13.7827C15.3792 13.2959 15.3932 12.5181 14.9249 12.0483Z" fill="white"/>
</svg>
