<svg width="22" height="22" viewBox="0 0 22 22" fill="none" xmlns="http://www.w3.org/2000/svg">
<path d="M2.49372 12.8052L5.8283 12.8054C6.49112 12.804 7.03099 12.2441 7.03087 11.5567L7.03106 9.87696C7.11337 9.85314 7.19885 9.82876 7.28901 9.80342C8.11332 9.5669 9.2421 9.24376 10.7705 9.24432C12.3028 9.24423 13.4331 9.56811 14.2586 9.80408C14.346 9.8292 14.43 9.85361 14.5109 9.87566L14.5101 11.0023L14.5104 11.5569C14.5105 12.2453 15.0508 12.8046 15.7138 12.805L19.0485 12.8054C19.7111 12.8053 20.2512 12.2451 20.2511 11.5567L20.2484 10.6142L20.2228 10.6143C20.1793 10.2557 20.0791 9.89219 19.9271 9.54417C19.7794 9.21585 19.6085 8.9325 19.4066 8.6792C17.8017 6.63402 15.2998 5.80007 10.7731 5.80004C4.51607 5.80025 2.23115 8.55784 2.13392 8.67815C1.92534 8.94335 1.75491 9.22698 1.6138 9.5473C1.46276 9.892 1.36252 10.2552 1.31882 10.6133L1.29943 10.6145L1.28954 11.5566C1.29028 12.2443 1.83034 12.8041 2.49372 12.8052Z" fill="white"/>
</svg>
